# xmcd
#
# Track frame offsets:
#	150
#	16648
#	36761
#	54911
#	75762
#	95592
#	112767
#	133377
#	154980
#	175074
#	189975
#
# Disc length: 2820 seconds
#
# Revision: 6
# Processed by: cddbd v1.5.2PL0 Copyright (c) Steve Scherf et al.
# Submitted via: EasyCDDAExtractor 12.0.4.1
#
DISCID=770b020b
DTITLE=PECK ผลิตโชค - PECK ONE
DYEAR=2549
DGENRE=Acoustic
TTITLE0=รักคือรัก
TTITLE1=หรือแค่ขำขำ
TTITLE2=ซน
TTITLE3=ใจหนึ่งก็รัก อีกใจก็เจ็บ
TTITLE4=นิทานหิ่งห้อย
TTITLE5=CATCH ME
TTITLE6=Just say good night
TTITLE7=ใส่ใจ
TTITLE8=คนอกหัก
TTITLE9=BANANA
TTITLE10=ไม่มีใครรู้
EXTD=
EXTT0=
EXTT1=
EXTT2=
EXTT3=
EXTT4=
EXTT5=
EXTT6=
EXTT7=
EXTT8=
EXTT9=
EXTT10=
PLAYORDER=
